<?xml version="1.0" encoding="UTF-8"?>
<svg width="11px" height="14px" viewBox="0 0 11 14" version="1.1" xmlns="http://www.w3.org/2000/svg" xmlns:xlink="http://www.w3.org/1999/xlink">
    <!-- Generator: Sketch 44.1 (41455) - http://www.bohemiancoding.com/sketch -->
    <title>shopping-bag</title>
    <desc>Created with Sketch.</desc>
    <defs></defs>
    <g id="Page-1" stroke="none" stroke-width="1" fill="none" fill-rule="evenodd">
        <path d="M9.74002832,12.7555556 L1.25714283,12.7555556 L1.25714283,4.82222222 L2.19999994,4.82222222 L2.19999994,5.90037778 C2.19999994,6.244 2.48144279,6.5226 2.82857136,6.5226 C3.17569992,6.5226 3.45714277,6.244 3.45714277,5.90037778 L3.45714277,4.82222222 L7.54285695,4.82222222 L7.54285695,5.90037778 C7.54285695,6.244 7.8242998,6.5226 8.17142836,6.5226 C8.51855693,6.5226 8.79999978,6.244 8.79999978,5.90037778 L8.79999978,4.82222222 L9.74269975,4.82222222 L9.74002832,12.7555556 Z M3.45714277,3.29373333 C3.45714277,2.16377778 4.3996856,1.24444444 5.46652843,1.24444444 L5.53347129,1.24444444 C6.60047126,1.24444444 7.54285695,2.16377778 7.54285695,3.29373333 L7.54285695,3.57777778 L3.45714277,3.57777778 L3.45714277,3.29373333 Z M10.8159854,3.77206667 C10.6981283,3.6554 10.5381569,3.57777778 10.3714283,3.57777778 L8.79999978,3.57777778 L8.79999978,3.29373333 C8.79999978,1.47762222 7.29362839,0 5.53347129,0 L5.46652843,0 C3.70637133,0 2.19999994,1.47762222 2.19999994,3.29373333 L2.19999994,3.57777778 L0.628571413,3.57777778 C0.28144285,3.57777778 0,3.88048889 0,4.22411111 L0,13.3777778 C0,13.7214 0.28144285,14 0.628571413,14 L10.3684426,14 C10.715414,14 10.9968569,13.7215556 10.997014,13.3779333 L10.9999997,4.21835556 C11.0001569,4.05331111 10.9338426,3.88888889 10.8159854,3.77206667 L10.8159854,3.77206667 Z" id="shopping-bag" fill="#FFFFFF"></path>
    </g>
</svg>