<?xml version="1.0" encoding="UTF-8"?>
<svg width="24px" height="20px" viewBox="0 0 24 20" version="1.1" xmlns="http://www.w3.org/2000/svg" xmlns:xlink="http://www.w3.org/1999/xlink">
    <!-- Generator: Sketch 44.1 (41455) - http://www.bohemiancoding.com/sketch -->
    <title>time-reverse copy</title>
    <desc>Created with Sketch.</desc>
    <defs></defs>
    <g id="Page-1" stroke="none" stroke-width="1" fill="none" fill-rule="evenodd">
        <path d="M13.8260886,4.18025641 C13.2498278,4.18025641 12.7826105,4.63948718 12.7826105,5.20589744 L12.7826105,10 C12.7826105,10.2712821 12.9148713,10.5312821 13.1092191,10.7235897 L15.3516535,12.9269231 C15.5556535,13.1282051 15.8290448,13.2292308 16.0969578,13.2292308 C16.3633056,13.2292308 16.632262,13.1294872 16.8360011,12.9305128 C17.2442619,12.5307692 17.2246967,11.8815385 16.8180011,11.48 L14.8695667,9.57666667 L14.8695667,5.20589744 C14.8695667,4.63948718 14.4023493,4.18025641 13.8260886,4.18025641 M24,10 C24,15.5141026 19.4564355,20 13.8714799,20 C11.8111324,20 9.82878485,19.3930769 8.1386112,18.2448718 C7.66435041,17.9228205 7.54565477,17.2841026 7.87330689,16.8182051 C8.20121989,16.3517949 8.85130674,16.2353846 9.3250458,16.5574359 C10.6648717,17.4674359 12.2371323,17.9487179 13.8714799,17.9487179 C18.30574,17.9487179 21.9130438,14.3830769 21.9130438,10 C21.9130438,5.61717949 18.30574,2.05128205 13.8714799,2.05128205 C9.53504576,2.05128205 5.99165502,5.4625641 5.837742,9.71282051 L8.27113292,7.30871795 C8.67756764,6.90717949 9.33808927,6.90538462 9.74687182,7.30512821 C10.1553935,7.70461538 10.1569587,8.35384615 9.75052399,8.75564103 L5.76678549,12.6912821 C5.57113334,12.8846154 5.30478556,12.9935897 5.02722039,12.9935897 C4.74939434,12.9935897 4.48330743,12.8846154 4.28739442,12.6912821 L0.303655915,8.75564103 C-0.102778803,8.35410256 -0.100952717,7.70461538 0.307568958,7.30512821 C0.716090632,6.90538462 1.37661227,6.9074359 1.78304699,7.30871795 L3.77295972,9.27461538 C4.15122052,4.09820513 8.53435027,0 13.8714799,0 C19.4564355,0 24,4.48589744 24,10" id="time-reverse-copy" fill="#666978"></path>
    </g>
</svg>